# xmcd
#
# Track frame offsets:
#	150
#	21826
#	40435
#	59326
#	79975
#	101392
#	118663
#	140199
#	163813
#	183853
#	203367
#	225684
#	245283
#	263075
#	284462
#	306071
#
# Disc length: 4374
#
# Revision: 1
# Processed by: cddbd v1.5.1PL0 Copyright (c) Steve Scherf et al.
# Submitted via: ExactAudioCopy v0.90b4
# Normalized: r0:DSETVAR1,TDELIM( - )
#
DISCID=dd111410
DTITLE=Various Artist - Clubtracks Vol 4 1997
DYEAR=1997
DGENRE=R&B
TTITLE0=Jade - Keep On Rising
TTITLE1=Billy Lawrence - Come On
TTITLE2=Tha Truth - Makin Moves
TTITLE3=Rome - I Belong To You
TTITLE4=Assorted Phlavors - First You Said
TTITLE5=Next Level - I Don't Know
TTITLE6=Veronica - No One But You
TTITLE7=Mark Morrison - Moan and Groan
TTITLE8=Johnny Gill - All He's Supposed To Be
TTITLE9=Mary J. blige - Love Is All We Need
TTITLE10=Tre - Take Your Time
TTITLE11=Ginuwine - Tell Me Do You Wanna
TTITLE12=Cassie - Girl
TTITLE13=Tascha Holiday - Don't Go Away
TTITLE14=Levert - Swing My Way
TTITLE15=Zakiya - My Love Won't Fade Away
EXTD=
EXTT0=
EXTT1=
EXTT2=
EXTT3=
EXTT4=
EXTT5=
EXTT6=
EXTT7=
EXTT8=
EXTT9=
EXTT10=
EXTT11=
EXTT12=
EXTT13=
EXTT14=
EXTT15=
PLAYORDER=
